<?xml version="1.0" encoding="UTF-8" standalone="no"?>
<svg
   xmlns:dc="http://purl.org/dc/elements/1.1/"
   xmlns:cc="http://creativecommons.org/ns#"
   xmlns:rdf="http://www.w3.org/1999/02/22-rdf-syntax-ns#"
   xmlns:svg="http://www.w3.org/2000/svg"
   xmlns="http://www.w3.org/2000/svg"
   xmlns:sodipodi="http://sodipodi.sourceforge.net/DTD/sodipodi-0.dtd"
   xmlns:inkscape="http://www.inkscape.org/namespaces/inkscape"
   id="Camada_1"
   data-name="Camada 1"
   viewBox="0 0 241.76347 306.30243"
   version="1.1"
   sodipodi:docname="logo.svg"
   width="241.76347"
   height="306.30243"
   inkscape:version="0.92.3 (2405546, 2018-03-11)">
  <metadata
     id="metadata18">
    <rdf:RDF>
      <cc:Work
         rdf:about="">
        <dc:format>image/svg+xml</dc:format>
        <dc:type
           rdf:resource="http://purl.org/dc/dcmitype/StillImage" />
        <dc:title>ícone</dc:title>
      </cc:Work>
    </rdf:RDF>
  </metadata>
  <sodipodi:namedview
     pagecolor="#ffffff"
     bordercolor="#666666"
     borderopacity="1"
     objecttolerance="10"
     gridtolerance="10"
     guidetolerance="10"
     inkscape:pageopacity="0"
     inkscape:pageshadow="2"
     inkscape:window-width="1920"
     inkscape:window-height="1017"
     id="namedview16"
     showgrid="false"
     fit-margin-top="16"
     fit-margin-left="36"
     fit-margin-right="36"
     fit-margin-bottom="16"
     inkscape:zoom="0.472"
     inkscape:cx="120.88346"
     inkscape:cy="153.14001"
     inkscape:window-x="-8"
     inkscape:window-y="-8"
     inkscape:window-maximized="1"
     inkscape:current-layer="Camada_1" />
  <defs
     id="defs4">
    <style
       id="style2">.cls-1{fill:#f7c100;}.cls-2{fill:#fff;}.cls-3{fill:#20170c;}</style>
  </defs>
  <title
     id="title6">ícone</title>
  <path
     class="cls-1"
     d="M 174.53347,106.16243 H 67.233462 a 7.78,7.78 0 0 0 -7.76,7.76 l 3.28,44.72 9.64,115.76 a 7.78,7.78 0 0 0 7.76,7.76 h 81.450008 a 7.78,7.78 0 0 0 7.76,-7.76 l 9.64,-115.76 3.29,-44.72 a 7.78,7.78 0 0 0 -7.76,-7.76 z"
     id="path8"
     inkscape:connector-curvature="0"
     style="fill:#f7c100" />
  <g
     id="_Grupo_"
     data-name="&lt;Grupo&gt;"
     transform="translate(-129.11653,-96.837565)">
    <g
       id="_Grupo_2"
       data-name="&lt;Grupo&gt;">
      <path
         id="_Caminho_"
         data-name="&lt;Caminho&gt;"
         class="cls-2"
         d="m 290.61,136.5 a 35.91,35.91 0 0 0 -15.69,3.62 40.68,40.68 0 0 0 -74.2,12.64 c -0.68,-0.05 -1.37,-0.1 -2.07,-0.1 A 25.38,25.38 0 0 0 194.2,203 h 117.73 c 9,-6.57 14.8,-18.45 14.8,-30.41 A 36.11,36.11 0 0 0 290.61,136.5 Z"
         inkscape:connector-curvature="0"
         style="fill:#ffffff" />
    </g>
  </g>
  <path
     class="cls-3"
     d="m 205.76347,75.772437 a 44.32,44.32 0 0 0 -44.27,-44.26 43.6,43.6 0 0 0 -12.81,1.91 48.84,48.84 0 0 0 -83.210008,14.5 33.52,33.52 0 0 0 -13.59,61.779993 15.83,15.83 0 0 0 -0.59,4.23 l 2.9,39.66 h -0.06 l 0.5,6.05 0.82,11.26 0.11,-0.05 8.66,103.94 a 15.93,15.93 0 0 0 15.9,15.51 h 81.450008 a 15.93,15.93 0 0 0 15.9,-15.51 l 8.66,-103.94 0.11,0.05 0.86,-11.72 0.47,-5.59 h -0.05 l 2.87,-39.07 v -0.6 a 15.92,15.92 0 0 0 -0.32,-3.19 46.75,46.75 0 0 0 15.69,-34.959993 z m -136.220008,-11.8 c 0.46,0 0.92,0 1.37,0.07 l 7.09,0.6 1.56,-6.94 a 32.77,32.77 0 0 1 31.759998,-25.41 32.42,32.42 0 0 1 27.56001,15.32 l 3.88,6.19 6.57,-3.18 a 27.64,27.64 0 0 1 12.14,-2.81 28,28 0 0 1 28,28 31.23,31.23 0 0 1 -9.59,22.22 H 65.883462 a 17.23,17.23 0 0 1 3.67,-34.06 z m 11,210.059993 -9.1,-109.33 h 0.68 c 0.26,0 0.53,0 0.79,0 0.26,0 0.56,0 0.84,0 0.28,0 0.57,0 0.85,0.07 l 0.56,0.09 c 0.4,0.06 0.81,0.13 1.2,0.23 h 0.1 a 16.34,16.34 0 0 1 12.2,15.88 l 4.73,93 z m 53.570008,-40.59 -2.06,40.59 h -22.33001 l -4.77,-93.46 a 15.93,15.93 0 0 1 31.85001,-0.11 z m 27.11,40.59 h -12.85 l 4.73,-93 v -0.41 a 15.61,15.61 0 0 1 0.09,-1.69 c 0,0 0,-0.08 0,-0.11 a 16.17,16.17 0 0 1 12,-13.65 l 0.2,-0.05 c 0.38,-0.09 0.77,-0.16 1.16,-0.22 l 0.57,-0.09 c 0.29,0 0.59,-0.05 0.88,-0.07 0.29,-0.02 0.53,0 0.8,0 0.27,0 0.55,0 0.82,0 h 0.66 z m 10.37,-125.6 h -0.38 -1 -1 -0.77 -1 l -1.1,0.08 h -0.6 a 32.15,32.15 0 0 0 -19.58,9.33 l -0.08,0.09 q -0.55,0.56 -1.07,1.14 l -0.11,0.11 -0.09,-0.1 c -0.25,-0.27 -0.5,-0.54 -0.75,-0.81 l -0.36,-0.37 c -0.29,-0.29 -0.58,-0.57 -0.88,-0.85 l -0.28,-0.27 q -1.19,-1.09 -2.49,-2.06 l -0.45,-0.32 -0.87,-0.61 -0.56,-0.36 -0.81,-0.51 -0.61,-0.35 -0.79,-0.44 -0.65,-0.34 -0.8,-0.39 -0.69,-0.31 -0.81,-0.35 -0.7,-0.28 -0.83,-0.3 -0.72,-0.24 -0.85,-0.26 -0.73,-0.21 -0.89,-0.22 -0.73,-0.17 -0.93,-0.18 -0.72,-0.13 -1,-0.14 -0.68,-0.09 -1.13,-0.09 h -0.57 c -0.57,0 -1.14,0 -1.72,0 -0.58,0 -1.15,0 -1.72,0 h -0.58 l -1.11,0.09 -0.71,0.09 -1,0.13 -0.77,0.14 -0.85,0.16 -0.83,0.19 -0.76,0.19 -0.89001,0.25 -0.65,0.2 -1,0.33 -0.5,0.19 -1.07,0.43 -0.33,0.14 q -0.61,0.26 -1.21,0.55 h -0.1 a 32.4,32.4 0 0 0 -9.929998,7.65 l -0.09,-0.09 a 32.24,32.24 0 0 0 -17,-10 h -0.07 q -0.8,-0.18 -1.62,-0.31 h -0.25 q -0.78,-0.12 -1.58,-0.21 c -0.42,0 -0.83,-0.07 -1.25,-0.1 h -0.59 -1.13 -0.66 -1 -0.94 -0.39 l -2.5,-34.1 H 174.09347 Z"
     id="path13"
     inkscape:connector-curvature="0"
     style="fill:#20170c" />
</svg>
